<?xml version="1.0" encoding="utf-8"?>
<!-- Generator: Adobe Illustrator 15.1.0, SVG Export Plug-In  -->
<!DOCTYPE svg PUBLIC "-//W3C//DTD SVG 1.1//EN" "http://www.w3.org/Graphics/SVG/1.1/DTD/svg11.dtd" [
	<!ENTITY ns_flows "http://ns.adobe.com/Flows/1.0/">
]>
<svg version="1.1"
	 xmlns="http://www.w3.org/2000/svg" xmlns:xlink="http://www.w3.org/1999/xlink" xmlns:a="http://ns.adobe.com/AdobeSVGViewerExtensions/3.0/"
	 x="0px" y="0px" width="434px" height="162px" viewBox="-15.745 -3.773 434 162"
	 overflow="visible" enable-background="new -15.745 -3.773 434 162" xml:space="preserve">
<defs>
</defs>
<path fill="#1F140F" d="M87.593,83.651c1.108-1.632,2.332-3.375,3.665-5.202l-0.312-0.56c0.728-0.423,1.637-1.432,2.595-2.554
	c0.456-0.592,0.918-1.214,1.39-1.826c-0.129,0.051-0.261,0.083-0.379,0.116c-0.524,0.517-1.04,0.947-1.536,1.246
	c0.755-1.017,1.163-1.164,1.536-1.246c0.288-0.283,0.6-0.607,0.91-0.946l-0.947-1.17c-0.251,0.554-0.331,0.97-1.013,1.379
	c-1.294,0.672,0.01-0.544,0.921-1.5l-8.798-10.916l42.998-51.811l-52.129,55.89c-0.301,0.438-0.595,0.89-0.881,1.329
	c0.23-0.411,0.451-0.779,0.646-1.07c-1.905,2.188-4.218,5.811-5.562,8.555c0.144,0.233,0.237,0.29,0.311,0.272
	c0.061-0.062,0.115-0.125,0.172-0.203c-0.045,0.107-0.097,0.191-0.172,0.203c-0.272,0.314-0.52,0.536-0.733,0.62
	c0.119-0.281,0.272-0.585,0.422-0.893c-0.174-0.278-0.435-0.809-0.806-1.737l6.382-6.843c0.365-0.576,0.571-0.875,0.598-0.803
	c1.117-1.639,2.334-3.375,3.668-5.21l-0.315-0.556c0.736-0.421,1.645-1.432,2.599-2.543c0.453-0.605,0.914-1.213,1.387-1.837
	c-0.128,0.048-0.25,0.09-0.384,0.119c-0.523,0.515-1.036,0.94-1.532,1.241c0.761-1.018,1.174-1.152,1.532-1.241
	c0.512-0.5,1.046-1.077,1.608-1.722c1.732-2.249,3.591-4.621,5.567-7.086c-0.472,0.257-0.731,0.364-0.213-0.96
	c2.574-3.492,3.241-3.658,4.604-4.457c0.442-0.54,0.89-1.081,1.341-1.635c-0.022-0.316-0.282-0.416-0.838-0.233
	c2.572-2.742,5.292-5.525,8.016-8.344c2.446-2.879,4.996-5.859,7.648-8.923c-0.36,0.278-0.708,0.576-1.028,0.896
	c-0.4,0.477-0.778,0.928-1.018,1.322c0.278-0.505,0.633-0.931,1.018-1.322c0.966-1.128,1.971-2.201,1.075-1.935
	c1.003-1.044,1.77-1.508,2.471-1.863c0.654-0.746,1.307-1.501,1.976-2.259c-0.689,0.334,2.783-2.889,1.315-2.627
	c1.235-0.151,2.663-2.975,4.866-4.93c-0.059-1.306-4.373,3.899-3.385,1.872c2.74-2.886,6.837-6.121,10.561-9.752h-8.429
	c-18.933,17.139-46.241,42.216-49.371,47.1C68.747,42.86,41.292,17.359,22.395,0H7.377l48.627,61.535L0,131.344h12.585
	c18.175-16.882,53.516-49.993,57.299-55.745c1.305,1.83,6.555,7,13.645,13.684c1.107-1.779,2.347-3.529,3.447-4.806
	C87.333,83.888,87.563,83.577,87.593,83.651z M105.091,27.461c-1.352,0.865-2.926,3.114-2.926,3.114
	c3.516-4.841-1.581,0.493-2.227,0.697C102.514,28.477,103.074,28.749,105.091,27.461z M87.381,48.648
	c0.355-0.509,0.851-1.015,1.657-1.645C88.522,47.429,87.967,47.975,87.381,48.648c-0.691,0.936-1.021,1.858-2.7,3.669
	C85.625,50.84,86.543,49.604,87.381,48.648z M84.211,51.141c-0.699,0.921-0.48,1.513-1.43,2.086
	C81.194,54.032,83.498,52.051,84.211,51.141z"/>
<path fill="#1F140F" d="M87.286,84.113c-0.103,0.123-0.208,0.251-0.309,0.363c-0.193,0.301-0.421,0.674-0.654,1.085
	C86.633,85.094,86.959,84.611,87.286,84.113z"/>
<path fill="#1F140F" d="M76.315,64.74l-0.042,0.045c-0.006,0.008-0.006,0.013-0.014,0.025C76.273,64.785,76.292,64.763,76.315,64.74
	z"/>
<path fill="#1F140F" d="M76.569,64.439c-0.084,0.103-0.168,0.202-0.254,0.301l0.179-0.188C76.523,64.51,76.542,64.472,76.569,64.439
	z"/>
<path fill="#1F140F" d="M93.831,96.691l2.546-2.451c-0.089,0.02-0.179,0.023-0.262,0.023c-0.4,0.294-0.8,0.533-1.209,0.678
	c0.547-0.646,0.89-0.678,1.209-0.678c0.406-0.29,0.81-0.663,1.232-1.062c1.235-1.406,2.55-2.876,3.953-4.415
	c-0.392,0.113-0.608,0.16-0.334-0.765c1.795-2.246,2.358-2.246,3.442-2.627c0.228-0.244,0.462-0.499,0.701-0.748l-0.486-0.601
	c0,0-0.022-0.011-0.035,0c0.006-0.011,0.013-0.013,0.016-0.021l-6.93-8.593l-13.491,14.47c2.628,2.467,5.49,5.135,8.484,7.909
	l0.862-0.826l-0.085-0.121C93.572,96.822,93.7,96.759,93.831,96.691z M98.564,90.832c0.251-0.315,0.612-0.621,1.232-0.96
	C99.406,90.104,98.991,90.429,98.564,90.832c-0.491,0.6-0.664,1.243-1.902,2.334C97.296,92.199,97.952,91.422,98.564,90.832z
	 M96.093,92.182c-0.513,0.584-0.229,1.077-1.004,1.338C93.775,93.854,95.58,92.766,96.093,92.182z"/>
<polygon fill="#1F140F" points="387.112,35.269 377.291,35.269 376.683,38.122 379.831,38.122 377.249,50.251 380.774,50.251 
	383.354,38.122 386.503,38.122 "/>
<polygon fill="#1F140F" points="396.219,35.269 392.337,45.109 392.295,45.109 392.546,35.269 387.384,35.269 384.194,50.251 
	387.343,50.251 389.818,38.583 389.86,38.583 389.798,50.251 392.525,50.251 397.289,38.583 397.331,38.583 394.856,50.251 
	398.129,50.251 401.318,35.269 "/>
<path fill="#1F140F" d="M361.226,53.357c-0.04,0.309-0.082,0.624-0.13,0.953c1.269-0.311,2.517-0.547,3.679-0.62
	c1.167-0.509,2.343-1.013,3.524-1.52c0.175-0.225,0.09-0.4-0.462-0.468c-2.289-0.101-3.708-0.299-6.488,0.621
	c-0.027,0.271-0.067,0.572-0.103,0.863c0.644-0.166,1.072-0.311,0.541-0.048C361.609,53.199,361.417,53.277,361.226,53.357z"/>
<path fill="#1F140F" d="M194.014,75.805l5.444-25.646c2.214-10.516-2.307-14.762-14.576-14.762c-6.181,0-10.609,0.832-14.576,3.229
	c-4.06,2.398-7.011,6.551-8.488,13.378h13.285c1.014-4.336,2.675-6.827,6.826-6.827c3.322,0,4.336,1.938,3.69,4.981
	c-0.83,3.781-1.751,4.521-6.549,5.721c-4.429,1.106-10.148,2.027-14.3,4.06c-2.224,1.11-4.265,3.1-5.868,5.611
	c0.341-1.401,0.668-2.835,0.979-4.322c3.967-18.634,0.186-25.831-9.872-25.831c-6.642,0-10.516,3.967-12.361,7.381h-0.185
	l1.291-6.088h-14.392l-12.059,56.885l-6.642-8.24l-9.285,8.906c0.022-0.003,0.039,0,0.061-0.003
	c-0.323,0.383-0.643,0.752-0.954,1.117c-0.579,0.55-1.129,1.059-1.654,1.337l-0.302,0.294l0.272,0.358
	c-0.247,0.299-0.467,0.573-0.706,0.857c12.298,11.364,26.764,24.414,36.477,33.143h13.176l-22.979-28.508h5.517l4.613-21.68h0.184
	c1.292,5.351,5.535,6.734,9.688,6.734c7.774,0,12.469-4.492,15.691-11.72c-0.77,8.253,3.183,11.72,10.601,11.72
	c4.981,0,10.239-2.584,13.192-7.012h0.184c-0.277,1.938-0.553,3.966-0.368,5.719h14.391
	C192.17,84.384,193.184,79.588,194.014,75.805z M144.845,61.967c-1.937,9.041-3.506,15.036-8.95,15.036
	c-5.072,0-3.966-6.825-2.121-15.683c2.121-9.686,4.151-15.036,8.581-15.036C147.98,46.284,146.505,53.939,144.845,61.967z
	 M181.192,70.73c-1.107,4.981-4.337,6.826-7.472,6.826c-2.769,0-3.876-2.397-3.045-6.363c0.646-2.77,1.662-4.339,3.506-5.536
	c1.66-1.107,3.69-1.2,8.948-3.69C182.668,63.996,182.022,66.58,181.192,70.73z"/>
<path fill="#1F140F" d="M231.379,35.396c-6.274,0-10.886,3.876-13.746,8.304h-0.184l1.475-7.011h-14.39l-10.611,49.908h14.945
	l5.997-28.321c1.384-6.551,5.812-9.04,11.809-9.04c1.477,0,2.675,0.092,4.059,0.368l3.044-14.022
	C232.854,35.396,232.116,35.396,231.379,35.396z"/>
<path fill="#1F140F" d="M289.034,75.805l0.364-1.715l-10.967,5.405c-0.196,0.18-0.371,0.349-0.555,0.521
	c0.065,0.188,0.144,0.276,0.224,0.304c0.15-0.068,0.307-0.15,0.477-0.249c-0.166,0.153-0.329,0.301-0.477,0.249
	c-0.312,0.147-0.581,0.238-0.79,0.242c0.169-0.175,0.376-0.363,0.566-0.546c-0.022-0.061-0.044-0.131-0.062-0.218l0.617-0.304
	c2.484-2.265,6.107-4.938,8.819-6.398c0.61-0.467,0.969-0.708,0.969-0.611c0.568-0.399,1.181-0.815,1.778-1.229l4.354-20.509
	l-43.158,21.273c-0.051,0.218-0.123,0.426-0.167,0.646c-0.32,1.494-0.508,2.854-0.591,4.108c-2.051-0.157-3.033-0.889-3.113-2.576
	c-2.355,1.546-4.912,3.54-6.747,5.254c0.062,0.297,0.136,0.396,0.22,0.409c0.083-0.043,0.169-0.086,0.257-0.141
	c-0.089,0.083-0.176,0.156-0.257,0.141c-0.405,0.215-0.752,0.346-1.007,0.349c0.237-0.243,0.511-0.502,0.787-0.758
	c-0.075-0.365-0.131-1.015-0.151-2.125l6.902-3.4c0.003-0.502,0.053-1.056,0.193-1.722l5.351-25.185h5.503
	c-0.614,1.479-1.134,3.123-1.536,4.981h13.285c1.015-4.336,2.675-6.827,6.826-6.827c3.322,0,4.336,1.938,3.69,4.981
	c-0.504,2.294-1.055,3.462-2.469,4.3c0.423-0.09,0.832-0.144,1.312-0.226c0.672-0.389,1.351-0.776,2.038-1.169
	c0.098-0.343-0.131-0.549-0.785-0.576c3.756-1.836,7.683-3.66,11.621-5.513c0.863-0.479,1.763-0.97,2.643-1.454
	c-0.008-7.134-4.829-10.124-15.098-10.124c-6.181,0-10.608,0.832-14.575,3.229c-1.777,1.052-3.327,2.462-4.648,4.26l1.327-6.196
	h-6.92l3.137-14.669h-14.945l-3.135,14.669h-6.182l-2.215,10.333h6.181l-5.626,26.66c-2.492,11.624,0.091,13.469,10.423,13.469
	c2.86,0,5.721-0.184,8.674-0.554l0.526-2.47c1.728,2.588,4.856,3.763,9.159,3.763c4.981,0,10.239-2.584,13.192-7.012h0.184
	c-0.276,1.938-0.554,3.966-0.368,5.719h14.391C287.189,84.384,288.204,79.588,289.034,75.805z M268.739,77.557
	c-2.769,0-3.876-2.397-3.045-6.363c0.646-2.77,1.661-4.339,3.506-5.536c1.66-1.107,3.69-1.2,8.948-3.69
	c-0.461,2.029-1.106,4.613-1.937,8.764C275.104,75.712,271.875,77.557,268.739,77.557z"/>
<path fill="#1F140F" d="M275.535,55.491c-0.442,0.128-0.912,0.253-1.445,0.388c-4.429,1.106-10.147,2.027-14.3,4.06
	c-3.838,1.918-7.157,6.408-8.523,11.805c1.642-1.148,3.396-2.337,5.284-3.576l-0.106-0.704c0.927-0.147,2.271-0.838,3.702-1.622
	c0.705-0.444,1.433-0.898,2.164-1.359c-0.158,0.005-0.298-0.01-0.444-0.025c0.728-0.317,1.512-0.714,2.342-1.152
	c2.688-1.66,5.551-3.388,8.58-5.173c-0.597,0.081-0.902,0.089,0.155-1.081C274.014,56.356,274.846,55.862,275.535,55.491z"/>
<path fill="#1F140F" d="M302.393,41.24c1.447-0.799,2.918-1.512,1.875-1.592c1.459-0.69,2.435-0.867,3.305-0.96
	c0.976-0.521,1.946-1.046,2.94-1.573c-0.27,0.025,0.038-0.157,0.529-0.426h-11.49l-1.523,7.164c1.895-1.034,3.823-2.081,5.786-3.14
	C303.328,40.866,302.852,41.029,302.393,41.24z"/>
<polygon fill="#1F140F" points="315.513,77.429 313.574,86.598 328.518,86.598 331.954,70.421 "/>
<polygon fill="#1F140F" points="303.887,86.598 304.869,81.965 293.996,86.598 "/>
<path fill="#1F140F" d="M317.725,46.837c2.496,0,3.625,1.737,3.219,4.713c2.924-1.399,5.904-2.8,8.91-4.214
	c2.305-1.274,4.686-2.578,7.099-3.894c-0.407-5.523-4.029-8.046-10.556-8.046c-0.351,0-0.688,0.043-1.033,0.065l-11.279,5.561
	c-0.441,0.498-0.858,1.021-1.249,1.571h-0.184l0.212-0.97l-16.042,7.907l-4.249,19.987c0.502-0.334,0.984-0.661,1.506-1.003
	l-0.107-0.704c0.928-0.153,2.27-0.842,3.706-1.622c0.705-0.444,1.429-0.902,2.161-1.359c-0.158,0.006-0.301-0.013-0.443-0.025
	c0.729-0.318,1.517-0.719,2.35-1.16c2.523-1.557,5.215-3.179,8.032-4.852l0.065-0.309c-0.104-0.043-0.096-0.163,0.093-0.434
	l0.87-4.111C311.913,49.051,314.865,46.837,317.725,46.837z"/>
<path fill="#1F140F" d="M288.941,86.598h4.752c0.293-0.107,0.592-0.227,0.897-0.352c1.837-0.977,3.787-1.988,5.847-3.036
	c-0.449-0.032-0.694-0.074-0.041-0.932c2.74-1.625,3.332-1.402,4.61-1.362c0.03-0.016,0.063-0.032,0.094-0.048l3.435-16.211
	l-16.676,8.221L288.941,86.598z"/>
<path fill="#1F140F" d="M366.508,36.081l-29.704,14.644c-0.616,1.478-1.164,3.036-1.657,4.659l0.912-4.293l-16.721,8.243
	l-3.449,16.315c1.857-0.88,3.746-1.772,5.699-2.684c-0.342,0.059-0.682,0.125-1,0.238c0.982-0.471,1.992-0.872,1.203-1.118
	c1.01-0.376,1.715-0.371,2.354-0.308c0.667-0.307,1.331-0.614,2.006-0.923c-0.593-0.08,2.754-1.041,1.499-1.595
	c1.055,0.531,2.687-1.181,4.818-1.725c0.17-1.161-4.244,1.095-3.099-0.156c3.766-1.456,9.74-2.164,14.243-4.567
	c-0.555-0.181-1.69,0.263-1.964,0.175c1.142-0.394,2.52-0.642,3.889-0.882c1.051-0.467,2.124-0.938,3.192-1.412
	c0.047-0.218,0.093-0.438,0.14-0.651c-1.04,0.127-2.09,0.261-3.106,0.403c0.407-0.171,0.898-0.494,1.565-1.094l-1.538-0.1
	c1.708-0.872,2.639-0.913,3.421-0.74c2.236-9.729,4.433-13.335,8.457-13.335c3.088,0,4.144,1.877,3.705,6.812
	c0.312-0.158,0.608-0.333,0.853-0.541l-0.351,0.08c3.787-1.371,3.156-1.385,7.138-2.479c0.865,0.905-0.835,1.146-2.295,2.287
	c2.108-0.896,4.642-1.666,7.249-2.482l-1.652,4.365l-11.917,5.079c-0.208,1.062-0.436,2.176-0.699,3.393
	c-2.583,12.271-4.335,16.421-8.948,16.421c-4.185,0-4.741-3.883-2.609-14.589l-16.044,6.837
	c-1.009,10.44,1.886,17.532,16.439,17.532c17.252,0,22.971-11.44,26.2-26.385C377.42,48.722,377.864,38.711,366.508,36.081z"/>
<path fill="#1F140F" d="M343.142,131.359H154.665v-0.03h-11.956v11.956h0.069c0.099,6.365,4.467,11.489,9.854,11.489h190.51
	c5.448,0,9.863-5.24,9.863-11.706C353.005,136.6,348.59,131.359,343.142,131.359z"/>
<path fill="#FFFFFF" d="M165.104,135.472l-0.56,2.646h-5.717l-0.785,3.766h5.381l-0.537,2.646h-5.381l-0.897,4.305h5.943
	l-0.54,2.646h-9.169l3.318-16.008H165.104z"/>
<path fill="#FFFFFF" d="M166.408,135.472h3.093l-3.317,16.008h-3.094L166.408,135.472z"/>
<path fill="#FFFFFF" d="M176.924,140.875c0.47-2.332,0.224-3.342-1.233-3.342c-1.636,0-2.331,1.614-3.295,6.167
	c-1.01,4.842-0.493,5.717,0.875,5.717c1.165,0,2.129-0.584,2.847-4.058h3.228c-0.718,3.474-2.175,6.434-6.413,6.434
	c-4.842,0-4.753-3.452-3.721-8.318c1.03-4.864,2.309-8.316,7.175-8.316c4.595,0,4.237,3.385,3.765,5.717H176.924z"/>
<path fill="#FFFFFF" d="M181.881,139.418h3.093l-2.489,12.062h-3.094L181.881,139.418z M182.754,135.292h3.094l-0.56,2.646h-3.093
	L182.754,135.292z"/>
<path fill="#FFFFFF" d="M186.589,139.418h2.961l-0.337,1.614h0.044c0.875-1.167,1.907-1.93,3.185-1.93
	c0.179,0,0.381,0.022,0.56,0.045l-0.628,2.96c-0.291-0.023-0.604-0.045-0.94-0.045c-1.077,0-2.377,0.562-2.735,2.175l-1.502,7.242
	h-3.094L186.589,139.418z"/>
<path fill="#FFFFFF" d="M198.407,143.768c0.247-1.166,0.269-2.422-0.897-2.422c-1.547,0-2.018,1.345-2.624,4.125
	c-0.605,2.982-0.605,4.215,0.785,4.215c1.054,0,1.659-0.853,2.084-2.824h2.959c-0.65,3.16-2.309,4.932-5.604,4.932
	c-3.073,0-4.327-1.502-3.319-6.345c1.009-4.955,3.364-6.346,6.211-6.346c2.847,0,3.922,1.817,3.362,4.665H198.407z"/>
<path fill="#FFFFFF" d="M207.31,150.066h-0.045c-0.896,1.188-2.107,1.727-3.43,1.727c-1.952,0-2.893-1.03-2.377-3.43l1.86-8.945
	h3.096l-1.728,8.316c-0.247,1.233,0.067,1.683,0.987,1.683c1.099,0,1.771-0.673,2.041-1.996l1.658-8.003h3.094l-2.488,12.062h-2.96
	L207.31,150.066z"/>
<path fill="#FFFFFF" d="M214.085,139.418h3.094l-2.489,12.062h-3.094L214.085,139.418z M214.958,135.292h3.094l-0.56,2.646h-3.094
	L214.958,135.292z"/>
<path fill="#FFFFFF" d="M220.183,135.965h3.096l-0.719,3.453h1.793l-0.425,2.106h-1.794l-1.367,6.525
	c-0.18,0.963-0.067,1.323,0.828,1.323c0.248,0,0.495-0.022,0.696-0.047l-0.426,2.153c-0.695,0.066-1.345,0.134-2.063,0.134
	c-2.422,0-2.735-0.761-2.196-3.183l1.436-6.906h-1.569l0.425-2.106h1.569L220.183,135.965z"/>
<path fill="#FFFFFF" d="M229.288,139.103c3.721-0.067,4.327,2.153,3.43,6.346c-0.831,4.126-2.512,6.345-6.054,6.345
	c-3.767,0.066-4.305-2.129-3.453-6.345C224.108,141.323,225.745,139.103,229.288,139.103z M227.09,149.686
	c1.256,0,1.928-1.211,2.534-4.237c0.627-3.026,0.492-4.237-0.764-4.237c-1.547,0-2.017,1.771-2.556,4.237
	C225.812,147.915,225.543,149.686,227.09,149.686z"/>
<path fill="#FFFFFF" d="M236.148,135.472h5.292c4.483,0,4.641,3.049,3.676,7.779c-1.188,5.649-2.893,8.229-7.197,8.229h-5.088
	L236.148,135.472z M236.552,149.103h1.435c2.243,0,2.983-1.413,3.879-5.763c0.764-3.631,0.853-5.493-1.613-5.493h-1.368
	L236.552,149.103z"/>
<path fill="#FFFFFF" d="M248.685,145.919l-0.201,0.965c-0.291,1.435-0.201,2.802,0.942,2.802c1.054,0,1.592-0.763,2.106-2.265h2.78
	c-0.694,2.803-2.331,4.372-5.268,4.372c-4.485,0-3.946-3.452-3.342-6.456c0.651-3.229,1.93-6.234,6.1-6.234
	c3.586,0,3.944,2.422,3.161,6.122l-0.157,0.694H248.685z M252.228,144.081c0.292-1.838,0.314-2.87-0.964-2.87
	c-1.233,0-1.86,1.256-2.107,2.399l-0.089,0.471H252.228z"/>
<path fill="#FFFFFF" d="M254.809,151.479l3.317-16.008h3.228l-2.779,13.361h5.717l-0.537,2.646H254.809z"/>
<path fill="#FFFFFF" d="M266.246,143.116l0.066-0.291c0.604-2.78,2.669-3.723,4.999-3.723c3.7,0,4.036,1.524,3.61,3.7l-1.323,6.344
	c-0.224,1.122-0.269,1.639-0.089,2.333h-2.96c-0.156-0.381-0.134-0.831-0.134-1.256h-0.045c-0.965,1.256-1.929,1.569-3.387,1.569
	c-2.129,0-2.554-1.838-2.196-3.452c0.493-2.288,1.569-3.161,3.835-3.768l1.838-0.47c0.964-0.246,1.367-0.606,1.524-1.413
	c0.201-0.92-0.067-1.479-1.121-1.479c-0.965,0-1.569,0.604-1.771,1.569l-0.067,0.336H266.246z M271.401,145.448
	c-0.471,0.336-1.008,0.516-1.434,0.604c-1.345,0.27-1.906,0.875-2.152,1.952c-0.202,0.918-0.023,1.681,0.808,1.681
	c0.851,0,1.972-0.517,2.285-1.861L271.401,145.448z"/>
<path fill="#FFFFFF" d="M277.838,147.533l-0.089,0.404c-0.202,1.053,0.201,1.748,1.255,1.748c0.964,0,1.659-0.472,1.861-1.435
	c0.179-0.785-0.27-1.121-0.831-1.367l-2.017-0.786c-1.592-0.604-2.221-1.658-1.86-3.362c0.425-1.972,1.994-3.633,5.178-3.633
	c2.803,0,3.879,1.256,3.409,3.432l-0.09,0.492h-2.78c0.246-1.233,0.022-1.815-0.987-1.815c-0.785,0-1.547,0.426-1.726,1.301
	c-0.157,0.604,0.09,1.075,1.054,1.412l1.727,0.627c1.815,0.651,2.33,1.637,1.95,3.454c-0.538,2.532-2.669,3.788-5.27,3.788
	c-3.497,0-4.124-1.502-3.653-3.833l0.089-0.427H277.838z"/>
<path fill="#FFFFFF" d="M287.57,135.472h5.403c2.624,0,4.372,0.987,3.698,4.059c-0.358,1.726-1.435,3.049-3.139,3.496l-0.021,0.045
	c1.726,0.247,2.601,1.569,2.152,3.723c-0.539,2.51-2.197,4.686-5.963,4.686h-5.448L287.57,135.472z M287.974,149.103h1.256
	c1.547,0,2.713-0.561,3.094-2.421c0.359-1.861-0.538-2.399-1.973-2.399h-1.391L287.974,149.103z M289.431,142.04h0.92
	c1.793,0,2.69-0.583,3.026-2.106c0.336-1.525-0.291-2.087-1.905-2.087h-1.166L289.431,142.04z"/>
<path fill="#FFFFFF" d="M299.858,145.919l-0.201,0.965c-0.291,1.435-0.201,2.802,0.942,2.802c1.054,0,1.592-0.763,2.106-2.265h2.78
	c-0.694,2.803-2.331,4.372-5.268,4.372c-4.485,0-3.946-3.452-3.342-6.456c0.651-3.229,1.93-6.234,6.1-6.234
	c3.586,0,3.944,2.422,3.161,6.122l-0.157,0.694H299.858z M303.402,144.081c0.291-1.838,0.313-2.87-0.965-2.87
	c-1.233,0-1.86,1.256-2.106,2.399l-0.09,0.471H303.402z"/>
<path fill="#FFFFFF" d="M308.966,147.533l-0.09,0.404c-0.202,1.053,0.201,1.748,1.256,1.748c0.963,0,1.658-0.472,1.86-1.435
	c0.179-0.785-0.27-1.121-0.83-1.367l-2.018-0.786c-1.592-0.604-2.221-1.658-1.86-3.362c0.426-1.972,1.995-3.633,5.178-3.633
	c2.803,0,3.88,1.256,3.409,3.432l-0.09,0.492h-2.78c0.246-1.233,0.022-1.815-0.986-1.815c-0.786,0-1.547,0.426-1.727,1.301
	c-0.156,0.604,0.09,1.075,1.055,1.412l1.726,0.627c1.815,0.651,2.331,1.637,1.95,3.454c-0.538,2.532-2.668,3.788-5.27,3.788
	c-3.496,0-4.124-1.502-3.653-3.833l0.09-0.427H308.966z"/>
<path fill="#FFFFFF" d="M319.166,135.965h3.096l-0.719,3.453h1.794l-0.426,2.106h-1.793l-1.368,6.525
	c-0.179,0.963-0.067,1.323,0.829,1.323c0.247,0,0.494-0.022,0.695-0.047l-0.426,2.153c-0.695,0.066-1.345,0.134-2.063,0.134
	c-2.422,0-2.735-0.761-2.196-3.183l1.436-6.906h-1.569l0.425-2.106h1.569L319.166,135.965z"/>
<path fill="#FFFFFF" d="M323.968,139.418h3.095l-2.489,12.062h-3.094L323.968,139.418z M324.842,135.292h3.094l-0.56,2.646h-3.094
	L324.842,135.292z"/>
<path fill="#FFFFFF" d="M327.893,143.116l0.066-0.291c0.605-2.78,2.669-3.723,4.999-3.723c3.7,0,4.036,1.524,3.61,3.7l-1.322,6.344
	c-0.225,1.122-0.27,1.639-0.09,2.333h-2.959c-0.157-0.381-0.135-0.831-0.135-1.256h-0.045c-0.965,1.256-1.929,1.569-3.387,1.569
	c-2.129,0-2.555-1.838-2.196-3.452c0.493-2.288,1.569-3.161,3.835-3.768l1.838-0.47c0.964-0.246,1.367-0.606,1.524-1.413
	c0.201-0.92-0.067-1.479-1.121-1.479c-0.965,0-1.569,0.604-1.771,1.569l-0.066,0.336H327.893z M333.048,145.448
	c-0.471,0.336-1.008,0.516-1.434,0.604c-1.345,0.27-1.906,0.875-2.153,1.952c-0.201,0.918-0.021,1.681,0.809,1.681
	c0.851,0,1.972-0.517,2.286-1.861L333.048,145.448z"/>
<path fill="#FFFFFF" d="M339.484,147.533l-0.089,0.404c-0.202,1.053,0.201,1.748,1.256,1.748c0.963,0,1.658-0.472,1.859-1.435
	c0.18-0.785-0.269-1.121-0.83-1.367l-2.017-0.786c-1.592-0.604-2.221-1.658-1.86-3.362c0.426-1.972,1.994-3.633,5.178-3.633
	c2.803,0,3.879,1.256,3.409,3.432l-0.09,0.492h-2.78c0.246-1.233,0.022-1.815-0.987-1.815c-0.785,0-1.546,0.426-1.726,1.301
	c-0.156,0.604,0.09,1.075,1.054,1.412l1.727,0.627c1.815,0.651,2.331,1.637,1.95,3.454c-0.538,2.532-2.669,3.788-5.27,3.788
	c-3.497,0-4.124-1.502-3.653-3.833l0.089-0.427H339.484z"/>
<path fill="#1F140F" d="M178.431,98.211h5.79c4.057,0,5.173,2.146,4.527,5.262c-0.441,2.057-1.969,4.027-4.204,4.555l-0.028,0.059
	c2.498,0.5,3.38,2.499,2.821,5.232c-0.793,3.673-3.644,5.877-7.612,5.877h-5.76L178.431,98.211z M176.168,117.609h3.497
	c3.262,0,5.173-1.47,5.79-4.291c0.588-2.821-0.675-4.291-3.938-4.291h-3.499L176.168,117.609z M178.342,107.439h2.969
	c3.232,0,4.996-1.381,5.524-3.82c0.588-2.792-0.646-3.82-3.585-3.82h-3.291L178.342,107.439z"/>
<path fill="#1F140F" d="M217.061,114.024c-0.97,3.32-3.263,5.524-6.202,5.524c-3.291,0-4.731-2.292-3.467-8.17
	c1.146-5.408,3.645-8.143,7.083-8.143c3.469,0,4.526,2.381,3.438,7.584l-0.146,0.646h-8.523l-0.146,0.734
	c-0.971,4.497,0.322,5.878,2.057,5.878c1.852,0,3.291-1.321,4.144-4.055H217.061z M216.209,109.997
	c0.763-3.879-0.03-5.291-2.205-5.291s-3.557,1.412-4.438,5.291H216.209z"/>
<path fill="#1F140F" d="M247.9,103.59h1.588l-3.087,14.489c-0.91,4.32-2.968,6.524-6.495,6.524c-3.027,0-4.291-1.586-3.82-3.82
	h1.763c-0.323,1.47,0.882,2.352,2.439,2.352c2.146,0,3.586-1.498,4.174-4.261l0.529-2.469h-0.06c-0.97,1.911-2.616,2.79-4.232,2.79
	c-2.409,0-4.496-1.586-3.144-7.816c1.116-5.379,3.263-8.143,6.701-8.143c1.704,0,2.879,1,3.056,2.764h0.06L247.9,103.59z
	 M241.406,117.727c2.086,0,3.644-1.528,4.701-6.524c1.059-4.967,0.146-6.496-1.938-6.496c-2.088,0-3.646,1.529-4.704,6.496
	C238.407,116.198,239.318,117.727,241.406,117.727z"/>
<path fill="#1F140F" d="M270.659,103.59h1.764l-3.322,15.605h-1.763L270.659,103.59z M271.805,98.211h1.765l-0.648,2.998h-1.763
	L271.805,98.211z"/>
<path fill="#1F140F" d="M293.591,103.59h1.586l-0.47,2.176h0.058c1.265-1.734,2.939-2.529,4.527-2.529
	c2.381,0,3.732,1.236,3.115,4.175l-2.499,11.784h-1.763l2.409-11.285c0.441-2.145-0.205-3.204-1.997-3.204
	c-2.058,0-3.793,1.589-4.292,3.998l-2.232,10.491h-1.765L293.591,103.59z"/>
<path fill="#1F140F" d="M325.077,111.438c-2.027-0.854-2.527-2.147-2.204-3.705c0.677-3.202,2.939-4.497,5.585-4.497
	c2.938,0,3.997,1.501,3.379,4.352l-0.088,0.439h-1.764l0.089-0.439c0.439-2.029-0.323-2.882-1.941-2.882
	c-2.056,0-3.085,1.088-3.408,2.646c-0.235,1.088-0.059,1.939,1.558,2.617l2.351,0.968c1.941,0.795,2.411,2.265,2.058,3.969
	c-0.558,2.676-2.527,4.644-5.819,4.644c-3.202,0-4.497-1.321-3.732-4.85l0.089-0.498h1.763l-0.089,0.409
	c-0.47,2.293,0.266,3.469,2.265,3.469c1.881,0,3.32-1.058,3.674-2.79c0.293-1.383-0.059-2.265-1.5-2.883L325.077,111.438z"/>
</svg>
