<?xml version="1.0" encoding="utf-8"?>
<!-- Generator: Adobe Illustrator 15.1.0, SVG Export Plug-In  -->
<!DOCTYPE svg PUBLIC "-//W3C//DTD SVG 1.1//EN" "http://www.w3.org/Graphics/SVG/1.1/DTD/svg11.dtd" [
	<!ENTITY ns_flows "http://ns.adobe.com/Flows/1.0/">
]>
<svg version="1.1"
	 xmlns="http://www.w3.org/2000/svg" xmlns:xlink="http://www.w3.org/1999/xlink" xmlns:a="http://ns.adobe.com/AdobeSVGViewerExtensions/3.0/"
	 x="0px" y="0px" width="434px" height="165px" viewBox="-15.745 -4.773 434 165"
	 overflow="visible" enable-background="new -15.745 -4.773 434 165" xml:space="preserve">
<defs>
</defs>
<path fill="#FFFFFF" d="M87.593,83.651c1.108-1.632,2.332-3.376,3.665-5.202l-0.312-0.56c0.728-0.422,1.637-1.432,2.595-2.553
	c0.456-0.592,0.918-1.214,1.39-1.827c-0.129,0.051-0.261,0.083-0.379,0.117c-0.524,0.517-1.04,0.947-1.536,1.246
	c0.755-1.018,1.163-1.165,1.536-1.246c0.288-0.283,0.6-0.608,0.91-0.947l-0.947-1.169c-0.251,0.554-0.331,0.97-1.013,1.379
	c-1.294,0.672,0.01-0.543,0.921-1.5l-8.798-10.916l42.998-51.811l-52.129,55.89c-0.301,0.438-0.595,0.89-0.881,1.329
	c0.23-0.411,0.451-0.779,0.646-1.07c-1.905,2.188-4.218,5.81-5.562,8.555c0.144,0.234,0.237,0.29,0.311,0.272
	c0.061-0.061,0.115-0.125,0.172-0.204c-0.045,0.107-0.097,0.192-0.172,0.204c-0.272,0.315-0.52,0.536-0.733,0.621
	c0.119-0.282,0.272-0.585,0.422-0.893c-0.174-0.278-0.435-0.809-0.806-1.737l6.382-6.843c0.365-0.576,0.571-0.875,0.598-0.803
	c1.117-1.638,2.334-3.375,3.668-5.21l-0.315-0.555c0.736-0.421,1.645-1.432,2.599-2.543c0.453-0.605,0.914-1.213,1.387-1.836
	c-0.128,0.048-0.25,0.089-0.384,0.118c-0.523,0.515-1.036,0.941-1.532,1.241c0.761-1.017,1.174-1.152,1.532-1.241
	c0.512-0.499,1.046-1.076,1.608-1.721c1.732-2.249,3.591-4.621,5.567-7.086c-0.472,0.258-0.731,0.365-0.213-0.959
	c2.574-3.492,3.241-3.659,4.604-4.457c0.442-0.541,0.89-1.081,1.341-1.634c-0.022-0.317-0.282-0.416-0.838-0.234
	c2.572-2.742,5.292-5.525,8.016-8.344c2.446-2.879,4.996-5.859,7.648-8.922c-0.36,0.278-0.708,0.576-1.028,0.896
	c-0.4,0.477-0.778,0.928-1.018,1.323c0.278-0.505,0.633-0.931,1.018-1.323c0.966-1.127,1.971-2.201,1.075-1.934
	c1.003-1.044,1.77-1.508,2.471-1.863c0.654-0.746,1.307-1.5,1.976-2.259c-0.689,0.334,2.783-2.889,1.315-2.626
	c1.235-0.152,2.663-2.976,4.866-4.93c-0.059-1.305-4.373,3.9-3.385,1.872c2.74-2.886,6.837-6.12,10.561-9.751h-8.429
	c-18.933,17.139-46.241,42.216-49.371,47.1C68.747,42.861,41.292,17.359,22.395,0H7.377l48.627,61.535L0,131.344h12.585
	c18.175-16.883,53.516-49.992,57.299-55.745c1.305,1.83,6.555,7,13.645,13.683c1.107-1.778,2.347-3.528,3.447-4.805
	C87.333,83.889,87.563,83.578,87.593,83.651z M105.091,27.461c-1.352,0.865-2.926,3.115-2.926,3.115
	c3.516-4.841-1.581,0.493-2.227,0.697C102.514,28.477,103.074,28.749,105.091,27.461z M87.381,48.648
	c0.355-0.508,0.851-1.014,1.657-1.644C88.522,47.429,87.967,47.975,87.381,48.648c-0.691,0.936-1.021,1.859-2.7,3.669
	C85.625,50.839,86.543,49.604,87.381,48.648z M84.211,51.14c-0.699,0.921-0.48,1.513-1.43,2.086
	C81.194,54.032,83.498,52.05,84.211,51.14z"/>
<path fill="#FFFFFF" d="M87.286,84.113c-0.103,0.123-0.208,0.252-0.309,0.363c-0.193,0.301-0.421,0.674-0.654,1.084
	C86.633,85.094,86.959,84.611,87.286,84.113z"/>
<path fill="#FFFFFF" d="M76.315,64.74l-0.042,0.045c-0.006,0.008-0.006,0.013-0.014,0.025C76.273,64.785,76.292,64.763,76.315,64.74
	z"/>
<path fill="#FFFFFF" d="M76.569,64.439c-0.084,0.103-0.168,0.202-0.254,0.301l0.179-0.188C76.523,64.51,76.542,64.472,76.569,64.439
	z"/>
<path fill="#FFFFFF" d="M93.831,96.691l2.546-2.451c-0.089,0.02-0.179,0.023-0.262,0.023c-0.4,0.293-0.8,0.533-1.209,0.678
	c0.547-0.646,0.89-0.678,1.209-0.678c0.406-0.29,0.81-0.662,1.232-1.062c1.235-1.406,2.55-2.877,3.953-4.415
	c-0.392,0.113-0.608,0.159-0.334-0.765c1.795-2.246,2.358-2.246,3.442-2.627c0.228-0.244,0.462-0.499,0.701-0.748l-0.486-0.6
	c0,0-0.022-0.012-0.035,0c0.006-0.012,0.013-0.014,0.016-0.021l-6.93-8.593l-13.491,14.47c2.628,2.467,5.49,5.135,8.484,7.908
	l0.862-0.824l-0.085-0.122C93.572,96.822,93.7,96.759,93.831,96.691z M98.564,90.832c0.251-0.315,0.612-0.621,1.232-0.96
	C99.406,90.104,98.991,90.429,98.564,90.832c-0.491,0.6-0.664,1.242-1.902,2.334C97.296,92.199,97.952,91.422,98.564,90.832z
	 M96.093,92.182c-0.513,0.584-0.229,1.077-1.004,1.338C93.775,93.854,95.58,92.766,96.093,92.182z"/>
<polygon fill="#FFFFFF" points="387.112,35.269 377.291,35.269 376.683,38.123 379.831,38.123 377.249,50.251 380.774,50.251 
	383.354,38.123 386.503,38.123 "/>
<polygon fill="#FFFFFF" points="396.219,35.269 392.337,45.109 392.295,45.109 392.546,35.269 387.384,35.269 384.194,50.251 
	387.343,50.251 389.818,38.583 389.86,38.583 389.798,50.251 392.525,50.251 397.289,38.583 397.331,38.583 394.856,50.251 
	398.129,50.251 401.318,35.269 "/>
<path fill="#FFFFFF" d="M361.226,53.357c-0.04,0.309-0.082,0.624-0.13,0.953c1.269-0.31,2.517-0.547,3.679-0.621
	c1.167-0.508,2.343-1.012,3.524-1.52c0.175-0.224,0.09-0.4-0.462-0.467c-2.289-0.101-3.708-0.299-6.488,0.621
	c-0.027,0.272-0.067,0.573-0.103,0.864c0.644-0.167,1.072-0.311,0.541-0.048C361.609,53.199,361.417,53.277,361.226,53.357z"/>
<path fill="#FFFFFF" d="M194.014,75.805l5.444-25.647c2.214-10.516-2.307-14.761-14.576-14.761c-6.181,0-10.609,0.832-14.576,3.229
	c-4.06,2.398-7.011,6.55-8.488,13.377h13.285c1.014-4.336,2.675-6.827,6.826-6.827c3.322,0,4.336,1.938,3.69,4.981
	c-0.83,3.781-1.751,4.521-6.549,5.72c-4.429,1.107-10.148,2.028-14.3,4.06c-2.224,1.11-4.265,3.1-5.868,5.611
	c0.341-1.401,0.668-2.834,0.979-4.322c3.967-18.634,0.186-25.831-9.872-25.831c-6.642,0-10.516,3.967-12.361,7.38h-0.185
	l1.291-6.088h-14.392l-12.059,56.885l-6.642-8.24l-9.285,8.906c0.022-0.003,0.039,0,0.061-0.003
	c-0.323,0.382-0.643,0.752-0.954,1.116c-0.579,0.551-1.129,1.06-1.654,1.338l-0.302,0.295l0.272,0.357
	c-0.247,0.299-0.467,0.572-0.706,0.857c12.298,11.364,26.764,24.414,36.477,33.143h13.176l-22.979-28.508h5.517l4.613-21.68h0.184
	c1.292,5.35,5.535,6.734,9.688,6.734c7.774,0,12.469-4.492,15.691-11.719c-0.77,8.252,3.183,11.719,10.601,11.719
	c4.981,0,10.239-2.584,13.192-7.012h0.184c-0.277,1.938-0.553,3.966-0.368,5.719h14.391
	C192.17,84.384,193.184,79.588,194.014,75.805z M144.845,61.967c-1.937,9.041-3.506,15.036-8.95,15.036
	c-5.072,0-3.966-6.825-2.121-15.683c2.121-9.686,4.151-15.037,8.581-15.037C147.98,46.284,146.505,53.939,144.845,61.967z
	 M181.192,70.731c-1.107,4.981-4.337,6.826-7.472,6.826c-2.769,0-3.876-2.398-3.045-6.363c0.646-2.769,1.662-4.338,3.506-5.537
	c1.66-1.106,3.69-1.2,8.948-3.69C182.668,63.997,182.022,66.58,181.192,70.731z"/>
<path fill="#FFFFFF" d="M231.379,35.397c-6.274,0-10.886,3.875-13.746,8.304h-0.184l1.475-7.012h-14.39l-10.611,49.909h14.945
	l5.997-28.321c1.384-6.551,5.812-9.04,11.809-9.04c1.477,0,2.675,0.091,4.059,0.368l3.044-14.022
	C232.854,35.397,232.116,35.397,231.379,35.397z"/>
<path fill="#FFFFFF" d="M289.034,75.805l0.364-1.715l-10.967,5.405c-0.196,0.18-0.371,0.349-0.555,0.522
	c0.065,0.187,0.144,0.275,0.224,0.303c0.15-0.068,0.307-0.15,0.477-0.249c-0.166,0.153-0.329,0.301-0.477,0.249
	c-0.312,0.147-0.581,0.238-0.79,0.242c0.169-0.174,0.376-0.363,0.566-0.545c-0.022-0.062-0.044-0.132-0.062-0.219l0.617-0.304
	c2.484-2.265,6.107-4.938,8.819-6.398c0.61-0.467,0.969-0.708,0.969-0.611c0.568-0.4,1.181-0.816,1.778-1.229l4.354-20.509
	l-43.158,21.274c-0.051,0.217-0.123,0.425-0.167,0.646c-0.32,1.494-0.508,2.854-0.591,4.108c-2.051-0.157-3.033-0.888-3.113-2.575
	c-2.355,1.545-4.912,3.54-6.747,5.252c0.062,0.299,0.136,0.397,0.22,0.41c0.083-0.043,0.169-0.086,0.257-0.141
	c-0.089,0.083-0.176,0.156-0.257,0.141c-0.405,0.215-0.752,0.346-1.007,0.349c0.237-0.243,0.511-0.502,0.787-0.759
	c-0.075-0.364-0.131-1.014-0.151-2.124l6.902-3.401c0.003-0.502,0.053-1.056,0.193-1.721l5.351-25.185h5.503
	c-0.614,1.479-1.134,3.123-1.536,4.981h13.285c1.015-4.336,2.675-6.827,6.826-6.827c3.322,0,4.336,1.938,3.69,4.981
	c-0.504,2.294-1.055,3.461-2.469,4.3c0.423-0.09,0.832-0.144,1.312-0.226c0.672-0.389,1.351-0.776,2.038-1.169
	c0.098-0.342-0.131-0.549-0.785-0.576c3.756-1.836,7.683-3.66,11.621-5.513c0.863-0.48,1.763-0.969,2.643-1.454
	c-0.008-7.134-4.829-10.124-15.098-10.124c-6.181,0-10.608,0.832-14.575,3.229c-1.777,1.051-3.327,2.462-4.648,4.26l1.327-6.197
	h-6.92l3.137-14.668h-14.945l-3.135,14.668h-6.182l-2.215,10.334h6.181L232.3,73.682c-2.492,11.625,0.091,13.469,10.423,13.469
	c2.86,0,5.721-0.185,8.674-0.554l0.526-2.47c1.728,2.588,4.856,3.763,9.159,3.763c4.981,0,10.239-2.584,13.192-7.012h0.184
	c-0.276,1.938-0.554,3.966-0.368,5.719h14.391C287.189,84.384,288.204,79.588,289.034,75.805z M268.739,77.557
	c-2.769,0-3.876-2.398-3.045-6.363c0.646-2.769,1.661-4.338,3.506-5.537c1.66-1.106,3.69-1.2,8.948-3.69
	c-0.461,2.03-1.106,4.613-1.937,8.764C275.104,75.712,271.875,77.557,268.739,77.557z"/>
<path fill="#FFFFFF" d="M275.535,55.491c-0.442,0.128-0.912,0.253-1.445,0.387c-4.429,1.107-10.147,2.028-14.3,4.06
	c-3.838,1.918-7.157,6.408-8.523,11.805c1.642-1.149,3.396-2.337,5.284-3.577l-0.106-0.704c0.927-0.147,2.271-0.838,3.702-1.622
	c0.705-0.444,1.433-0.899,2.164-1.359c-0.158,0.004-0.298-0.01-0.444-0.026c0.728-0.317,1.512-0.713,2.342-1.152
	c2.688-1.66,5.551-3.388,8.58-5.173c-0.597,0.082-0.902,0.089,0.155-1.082C274.014,56.357,274.846,55.862,275.535,55.491z"/>
<path fill="#FFFFFF" d="M302.393,41.24c1.447-0.798,2.918-1.512,1.875-1.592c1.459-0.691,2.435-0.867,3.305-0.96
	c0.976-0.521,1.946-1.046,2.94-1.574c-0.27,0.025,0.038-0.157,0.529-0.426h-11.49l-1.523,7.165c1.895-1.035,3.823-2.081,5.786-3.14
	C303.328,40.866,302.852,41.029,302.393,41.24z"/>
<polygon fill="#FFFFFF" points="315.513,77.429 313.574,86.598 328.518,86.598 331.954,70.421 "/>
<polygon fill="#FFFFFF" points="303.887,86.598 304.869,81.965 293.996,86.598 "/>
<path fill="#FFFFFF" d="M317.725,46.837c2.496,0,3.625,1.737,3.219,4.713c2.924-1.399,5.904-2.799,8.91-4.213
	c2.305-1.275,4.686-2.579,7.099-3.894c-0.407-5.523-4.029-8.046-10.556-8.046c-0.351,0-0.688,0.043-1.033,0.065l-11.279,5.56
	c-0.441,0.498-0.858,1.021-1.249,1.571h-0.184l0.212-0.969l-16.042,7.907l-4.249,19.987c0.502-0.334,0.984-0.661,1.506-1.003
	l-0.107-0.704c0.928-0.153,2.27-0.841,3.706-1.622c0.705-0.444,1.429-0.902,2.161-1.359c-0.158,0.006-0.301-0.013-0.443-0.026
	c0.729-0.318,1.517-0.718,2.35-1.16c2.523-1.556,5.215-3.179,8.032-4.852l0.065-0.309c-0.104-0.043-0.096-0.163,0.093-0.434
	l0.87-4.111C311.913,49.051,314.865,46.837,317.725,46.837z"/>
<path fill="#FFFFFF" d="M288.941,86.598h4.752c0.293-0.107,0.592-0.227,0.897-0.352c1.837-0.977,3.787-1.988,5.847-3.036
	c-0.449-0.032-0.694-0.073-0.041-0.931c2.74-1.626,3.332-1.403,4.61-1.363c0.03-0.016,0.063-0.032,0.094-0.049l3.435-16.21
	l-16.676,8.22L288.941,86.598z"/>
<path fill="#FFFFFF" d="M366.508,36.081l-29.704,14.644c-0.616,1.478-1.164,3.036-1.657,4.66l0.912-4.293l-16.721,8.243
	l-3.449,16.316c1.857-0.88,3.746-1.772,5.699-2.684c-0.342,0.059-0.682,0.125-1,0.238c0.982-0.47,1.992-0.872,1.203-1.118
	c1.01-0.376,1.715-0.371,2.354-0.307c0.667-0.307,1.331-0.614,2.006-0.923c-0.593-0.08,2.754-1.042,1.499-1.595
	c1.055,0.531,2.687-1.18,4.818-1.724c0.17-1.162-4.244,1.094-3.099-0.157c3.766-1.456,9.74-2.165,14.243-4.567
	c-0.555-0.181-1.69,0.262-1.964,0.174c1.142-0.394,2.52-0.642,3.889-0.882c1.051-0.467,2.124-0.938,3.192-1.412
	c0.047-0.218,0.093-0.438,0.14-0.651c-1.04,0.126-2.09,0.26-3.106,0.403c0.407-0.171,0.898-0.494,1.565-1.094l-1.538-0.099
	c1.708-0.872,2.639-0.913,3.421-0.741c2.236-9.729,4.433-13.334,8.457-13.334c3.088,0,4.144,1.876,3.705,6.812
	c0.312-0.159,0.608-0.333,0.853-0.541l-0.351,0.08c3.787-1.371,3.156-1.385,7.138-2.479c0.865,0.905-0.835,1.146-2.295,2.288
	c2.108-0.896,4.642-1.667,7.249-2.482l-1.652,4.365l-11.917,5.079c-0.208,1.062-0.436,2.176-0.699,3.393
	c-2.583,12.271-4.335,16.42-8.948,16.42c-4.185,0-4.741-3.882-2.609-14.588l-16.044,6.837c-1.009,10.44,1.886,17.532,16.439,17.532
	c17.252,0,22.971-11.441,26.2-26.385C377.42,48.722,377.864,38.711,366.508,36.081z"/>
<path fill="#FFFFFF" d="M343.142,131.359H154.665v-0.029h-11.956v11.955h0.069c0.099,6.365,4.467,11.489,9.854,11.489h190.51
	c5.448,0,9.863-5.24,9.863-11.706C353.005,136.6,348.59,131.359,343.142,131.359z"/>
<path d="M165.104,135.472l-0.56,2.646h-5.717l-0.785,3.766h5.381l-0.537,2.646h-5.381l-0.897,4.305h5.943l-0.54,2.646h-9.169
	l3.318-16.008H165.104z"/>
<path d="M166.408,135.472h3.093l-3.317,16.008h-3.094L166.408,135.472z"/>
<path d="M176.924,140.875c0.47-2.332,0.224-3.342-1.233-3.342c-1.636,0-2.331,1.614-3.295,6.167
	c-1.01,4.843-0.493,5.718,0.875,5.718c1.165,0,2.129-0.584,2.847-4.059h3.228c-0.718,3.475-2.175,6.434-6.413,6.434
	c-4.842,0-4.753-3.452-3.721-8.318c1.03-4.865,2.309-8.316,7.175-8.316c4.595,0,4.237,3.385,3.765,5.717H176.924z"/>
<path d="M181.881,139.418h3.093l-2.489,12.062h-3.094L181.881,139.418z M182.754,135.293h3.094l-0.56,2.646h-3.093L182.754,135.293z
	"/>
<path d="M186.589,139.418h2.961l-0.337,1.614h0.044c0.875-1.167,1.907-1.93,3.185-1.93c0.179,0,0.381,0.022,0.56,0.045l-0.628,2.96
	c-0.291-0.023-0.604-0.045-0.94-0.045c-1.077,0-2.377,0.561-2.735,2.176l-1.502,7.241h-3.094L186.589,139.418z"/>
<path d="M198.407,143.768c0.247-1.166,0.269-2.422-0.897-2.422c-1.547,0-2.018,1.346-2.624,4.125
	c-0.605,2.982-0.605,4.215,0.785,4.215c1.054,0,1.659-0.852,2.084-2.824h2.959c-0.65,3.16-2.309,4.932-5.604,4.932
	c-3.073,0-4.327-1.502-3.319-6.345c1.009-4.955,3.364-6.346,6.211-6.346c2.847,0,3.922,1.817,3.362,4.665H198.407z"/>
<path d="M207.31,150.066h-0.045c-0.896,1.189-2.107,1.727-3.43,1.727c-1.952,0-2.893-1.03-2.377-3.43l1.86-8.945h3.096l-1.728,8.316
	c-0.247,1.233,0.067,1.684,0.987,1.684c1.099,0,1.771-0.674,2.041-1.997l1.658-8.003h3.094l-2.488,12.062h-2.96L207.31,150.066z"/>
<path d="M214.085,139.418h3.094l-2.489,12.062h-3.094L214.085,139.418z M214.958,135.293h3.094l-0.56,2.646h-3.094L214.958,135.293z
	"/>
<path d="M220.183,135.965h3.096l-0.719,3.453h1.793l-0.425,2.106h-1.794l-1.367,6.525c-0.18,0.963-0.067,1.323,0.828,1.323
	c0.248,0,0.495-0.023,0.696-0.047l-0.426,2.153c-0.695,0.067-1.345,0.134-2.063,0.134c-2.422,0-2.735-0.762-2.196-3.184l1.436-6.905
	h-1.569l0.425-2.106h1.569L220.183,135.965z"/>
<path d="M229.288,139.103c3.721-0.067,4.327,2.153,3.43,6.346c-0.831,4.126-2.512,6.345-6.054,6.345
	c-3.767,0.066-4.305-2.129-3.453-6.345C224.108,141.323,225.745,139.103,229.288,139.103z M227.09,149.686
	c1.256,0,1.928-1.211,2.534-4.237c0.627-3.026,0.492-4.237-0.764-4.237c-1.547,0-2.017,1.771-2.556,4.237
	C225.812,147.915,225.543,149.686,227.09,149.686z"/>
<path d="M236.148,135.472h5.292c4.483,0,4.641,3.049,3.676,7.778c-1.188,5.65-2.893,8.229-7.197,8.229h-5.088L236.148,135.472z
	 M236.552,149.102h1.435c2.243,0,2.983-1.412,3.879-5.762c0.764-3.631,0.853-5.492-1.613-5.492h-1.368L236.552,149.102z"/>
<path d="M248.685,145.919l-0.201,0.964c-0.291,1.436-0.201,2.803,0.942,2.803c1.054,0,1.592-0.763,2.106-2.265h2.78
	c-0.694,2.803-2.331,4.372-5.268,4.372c-4.485,0-3.946-3.452-3.342-6.456c0.651-3.229,1.93-6.234,6.1-6.234
	c3.586,0,3.944,2.422,3.161,6.122l-0.157,0.694H248.685z M252.228,144.081c0.292-1.839,0.314-2.87-0.964-2.87
	c-1.233,0-1.86,1.256-2.107,2.4l-0.089,0.47H252.228z"/>
<path d="M254.809,151.479l3.317-16.008h3.228l-2.779,13.362h5.717l-0.537,2.646H254.809z"/>
<path d="M266.246,143.116l0.066-0.291c0.604-2.78,2.669-3.723,4.999-3.723c3.7,0,4.036,1.524,3.61,3.7l-1.323,6.344
	c-0.224,1.121-0.269,1.639-0.089,2.333h-2.96c-0.156-0.381-0.134-0.831-0.134-1.256h-0.045c-0.965,1.256-1.929,1.569-3.387,1.569
	c-2.129,0-2.554-1.838-2.196-3.452c0.493-2.288,1.569-3.161,3.835-3.767l1.838-0.471c0.964-0.246,1.367-0.606,1.524-1.412
	c0.201-0.92-0.067-1.48-1.121-1.48c-0.965,0-1.569,0.605-1.771,1.569l-0.067,0.336H266.246z M271.401,145.448
	c-0.471,0.337-1.008,0.516-1.434,0.604c-1.345,0.27-1.906,0.875-2.152,1.952c-0.202,0.918-0.023,1.681,0.808,1.681
	c0.851,0,1.972-0.516,2.285-1.861L271.401,145.448z"/>
<path d="M277.838,147.533l-0.089,0.404c-0.202,1.053,0.201,1.748,1.255,1.748c0.964,0,1.659-0.471,1.861-1.435
	c0.179-0.785-0.27-1.121-0.831-1.368l-2.017-0.785c-1.592-0.604-2.221-1.658-1.86-3.361c0.425-1.973,1.994-3.634,5.178-3.634
	c2.803,0,3.879,1.256,3.409,3.432l-0.09,0.493h-2.78c0.246-1.234,0.022-1.816-0.987-1.816c-0.785,0-1.547,0.426-1.726,1.301
	c-0.157,0.604,0.09,1.074,1.054,1.412l1.727,0.627c1.815,0.651,2.33,1.637,1.95,3.454c-0.538,2.532-2.669,3.788-5.27,3.788
	c-3.497,0-4.124-1.502-3.653-3.833l0.089-0.427H277.838z"/>
<path d="M287.57,135.472h5.403c2.624,0,4.372,0.987,3.698,4.058c-0.358,1.727-1.435,3.05-3.139,3.498l-0.021,0.045
	c1.726,0.246,2.601,1.568,2.152,3.722c-0.539,2.51-2.197,4.686-5.963,4.686h-5.448L287.57,135.472z M287.974,149.102h1.256
	c1.547,0,2.713-0.559,3.094-2.42c0.359-1.861-0.538-2.399-1.973-2.399h-1.391L287.974,149.102z M289.431,142.039h0.92
	c1.793,0,2.69-0.582,3.026-2.105c0.336-1.525-0.291-2.086-1.905-2.086h-1.166L289.431,142.039z"/>
<path d="M299.858,145.919l-0.201,0.964c-0.291,1.436-0.201,2.803,0.942,2.803c1.054,0,1.592-0.763,2.106-2.265h2.78
	c-0.694,2.803-2.331,4.372-5.268,4.372c-4.485,0-3.946-3.452-3.342-6.456c0.651-3.229,1.93-6.234,6.1-6.234
	c3.586,0,3.944,2.422,3.161,6.122l-0.157,0.694H299.858z M303.402,144.081c0.291-1.839,0.313-2.87-0.965-2.87
	c-1.233,0-1.86,1.256-2.106,2.4l-0.09,0.47H303.402z"/>
<path d="M308.966,147.533l-0.09,0.404c-0.202,1.053,0.201,1.748,1.256,1.748c0.963,0,1.658-0.471,1.86-1.435
	c0.179-0.785-0.27-1.121-0.83-1.368l-2.018-0.785c-1.592-0.604-2.221-1.658-1.86-3.361c0.426-1.973,1.995-3.634,5.178-3.634
	c2.803,0,3.88,1.256,3.409,3.432l-0.09,0.493h-2.78c0.246-1.234,0.022-1.816-0.986-1.816c-0.786,0-1.547,0.426-1.727,1.301
	c-0.156,0.604,0.09,1.074,1.055,1.412l1.726,0.627c1.815,0.651,2.331,1.637,1.95,3.454c-0.538,2.532-2.668,3.788-5.27,3.788
	c-3.496,0-4.124-1.502-3.653-3.833l0.09-0.427H308.966z"/>
<path d="M319.166,135.965h3.096l-0.719,3.453h1.794l-0.426,2.106h-1.793l-1.368,6.525c-0.179,0.963-0.067,1.323,0.829,1.323
	c0.247,0,0.494-0.023,0.695-0.047l-0.426,2.153c-0.695,0.067-1.345,0.134-2.063,0.134c-2.422,0-2.735-0.762-2.196-3.184l1.436-6.905
	h-1.569l0.425-2.106h1.569L319.166,135.965z"/>
<path d="M323.968,139.418h3.095l-2.489,12.062h-3.094L323.968,139.418z M324.842,135.293h3.094l-0.56,2.646h-3.094L324.842,135.293z
	"/>
<path d="M327.893,143.116l0.066-0.291c0.605-2.78,2.669-3.723,4.999-3.723c3.7,0,4.036,1.524,3.61,3.7l-1.322,6.344
	c-0.225,1.121-0.27,1.639-0.09,2.333h-2.959c-0.157-0.381-0.135-0.831-0.135-1.256h-0.045c-0.965,1.256-1.929,1.569-3.387,1.569
	c-2.129,0-2.555-1.838-2.196-3.452c0.493-2.288,1.569-3.161,3.835-3.767l1.838-0.471c0.964-0.246,1.367-0.606,1.524-1.412
	c0.201-0.92-0.067-1.48-1.121-1.48c-0.965,0-1.569,0.605-1.771,1.569l-0.066,0.336H327.893z M333.048,145.448
	c-0.471,0.337-1.008,0.516-1.434,0.604c-1.345,0.27-1.906,0.875-2.153,1.952c-0.201,0.918-0.021,1.681,0.809,1.681
	c0.851,0,1.972-0.516,2.286-1.861L333.048,145.448z"/>
<path d="M339.484,147.533l-0.089,0.404c-0.202,1.053,0.201,1.748,1.256,1.748c0.963,0,1.658-0.471,1.859-1.435
	c0.18-0.785-0.269-1.121-0.83-1.368l-2.017-0.785c-1.592-0.604-2.221-1.658-1.86-3.361c0.426-1.973,1.994-3.634,5.178-3.634
	c2.803,0,3.879,1.256,3.409,3.432l-0.09,0.493h-2.78c0.246-1.234,0.022-1.816-0.987-1.816c-0.785,0-1.546,0.426-1.726,1.301
	c-0.156,0.604,0.09,1.074,1.054,1.412l1.727,0.627c1.815,0.651,2.331,1.637,1.95,3.454c-0.538,2.532-2.669,3.788-5.27,3.788
	c-3.497,0-4.124-1.502-3.653-3.833l0.089-0.427H339.484z"/>
<path fill="#FFFFFF" d="M168.292,110.732h-7.712l-2.102,9.842h-1.769l4.202-19.738h1.77l-1.797,8.404h7.712l1.797-8.404h1.769
	l-4.202,19.738h-1.769L168.292,110.732z"/>
<path fill="#FFFFFF" d="M186.822,110.263c0.636-3.014,2.433-4.7,5.529-4.7c3.041,0,3.813,1.576,3.316,3.898l-1.824,8.68
	c-0.193,0.83,0,1.218,0.581,1.218h0.47l-0.25,1.216c-0.331,0.109-0.581,0.166-0.802,0.166c-1.299,0-2.073-0.304-1.742-1.825
	l0.11-0.497h-0.054c-1.078,1.936-2.71,2.487-4.34,2.487c-2.572,0-3.374-1.603-2.848-4.146c0.415-1.936,1.631-3.482,3.843-4.063
	l3.289-0.885c1.245-0.332,1.548-0.607,1.908-2.322c0.415-1.879-0.498-2.543-1.992-2.543c-1.962,0-3.068,1.188-3.538,3.317H186.822z
	 M193.43,112.281h-0.056c-0.276,0.498-1.271,0.802-1.99,0.967l-1.438,0.359c-1.77,0.443-2.792,1.299-3.179,3.041
	c-0.36,1.713,0.277,2.875,1.713,2.875c2.019,0,3.732-1.52,4.286-4.146L193.43,112.281z"/>
<path fill="#FFFFFF" d="M213.674,105.896h1.659l-0.498,2.294h0.055c0.996-1.631,2.543-2.627,4.258-2.627
	c0.193,0,0.388,0.029,0.581,0.084l-0.36,1.658c-0.276-0.056-0.524-0.083-0.773-0.083c-1.824,0-3.843,1.327-4.424,4.175l-1.963,9.178
	h-1.658L213.674,105.896z"/>
<path fill="#FFFFFF" d="M240.328,118.141h-0.054c-0.802,1.686-2.461,2.765-4.202,2.765c-3.235,0-4.146-2.599-3.041-7.685
	c1.051-5.059,3.067-7.658,6.302-7.658c1.825,0,2.877,0.996,2.904,2.544h0.054l1.549-7.271h1.658l-4.202,19.738h-1.492
	L240.328,118.141z M236.652,119.523c1.687,0,3.401-0.856,4.561-6.303c1.134-5.418-0.193-6.275-1.88-6.275
	c-1.658,0-3.398,0.857-4.533,6.275C233.639,118.667,234.994,119.523,236.652,119.523z"/>
<path fill="#FFFFFF" d="M271.52,113.885c-1.188,4.506-3.815,7.021-7.354,7.021c-4.036,0-5.639-3.122-4.119-10.2
	c1.494-7.076,4.423-10.2,8.461-10.2c4.007,0,5.058,2.847,4.394,6.082h-1.769c0.554-2.683-0.388-4.589-2.931-4.589
	c-2.818,0-5.031,2.322-6.386,8.707c-1.354,6.387-0.138,8.707,2.683,8.707c2.487,0,4.34-2.127,5.252-5.527H271.52z"/>
<path fill="#FFFFFF" d="M293.809,105.562c3.234,0,4.534,2.571,3.456,7.658c-1.105,5.113-3.482,7.685-6.718,7.685
	c-3.234,0-4.506-2.571-3.4-7.685C288.225,108.134,290.574,105.562,293.809,105.562z M290.852,119.523
	c1.852,0,3.621-1.604,4.644-6.303c0.968-4.672-0.11-6.275-1.963-6.275c-1.851,0-3.648,1.604-4.616,6.275
	C287.894,117.92,288.999,119.523,290.852,119.523z"/>
<path fill="#FFFFFF" d="M315.076,105.896h1.659l-0.498,2.294h0.055c0.996-1.631,2.543-2.627,4.258-2.627
	c0.193,0,0.388,0.029,0.581,0.084l-0.36,1.658c-0.276-0.056-0.524-0.083-0.774-0.083c-1.823,0-3.842,1.327-4.423,4.175l-1.963,9.178
	h-1.658L315.076,105.896z"/>
<path fill="#FFFFFF" d="M343.528,115.709c-0.913,3.123-3.069,5.196-5.834,5.196c-3.095,0-4.449-2.157-3.261-7.685
	c1.078-5.087,3.428-7.658,6.662-7.658c3.262,0,4.257,2.24,3.234,7.133l-0.14,0.608h-8.016l-0.139,0.69
	c-0.912,4.23,0.306,5.529,1.936,5.529c1.742,0,3.097-1.243,3.898-3.814H343.528z M342.728,111.922
	c0.718-3.648-0.029-4.977-2.075-4.977c-2.044,0-3.345,1.328-4.173,4.977H342.728z"/>
</svg>
